<svg width="42" height="48" viewBox="0 0 42 48" fill="none" xmlns="http://www.w3.org/2000/svg">
  <g clip-path="url(#clip0_222_37)">
    <path
      d="M21 1.5L1.5 12.5V35L21 46.5L40.5 35.5V13L21 1.5Z"
      stroke="#F8FAFC"
      stroke-width="2.5"
      stroke-linecap="round"
      stroke-linejoin="round"></path>
    <path
      d="M12.1641 17.1328H20.3828V25.4297L18.3125 27.5H16.9297V19.3906H12.1641V17.1328ZM14.4922 25.4297H16.3828V27.5H12.9844L10.9062 25.4297V23.1563H14.4922V25.4297Z"
      fill="#565656"></path>
    <path
      d="M24.3672 27.7422V32H20.9141V21.6328H24.3672V25.7422H27.6719V27.7422H24.3672ZM24.9141 23.6406V21.6328H30.3125V24.6328H27.0625V23.6406H24.9141ZM24.9141 32V29.9297H26.8594V28.8906H30.3125V32H24.9141Z"
      fill="#565656"></path>
    <path
      d="M12.1641 15.6328H20.3828V23.9297L18.3125 26H16.9297V17.8906H12.1641V15.6328ZM14.4922 23.9297H16.3828V26H12.9844L10.9062 23.9297V21.6563H14.4922V23.9297Z"
      fill="#F8FAFC"></path>
    <path
      d="M24.3672 26.2422V30.5H20.9141V20.1328H24.3672V24.2422H27.6719V26.2422H24.3672ZM24.9141 22.1406V20.1328H30.3125V23.1328H27.0625V22.1406H24.9141ZM24.9141 30.5V28.4297H26.8594V27.3906H30.3125V30.5H24.9141Z"
      fill="#F8FAFC"></path>
  </g>
  <defs>
    <clipPath id="clip0_222_37">
      <rect width="42" height="48" fill="#F8FAFC"></rect>
    </clipPath>
  </defs>
</svg>
